<mxfile host="app.diagrams.net" modified="2022-09-13T09:40:18.346Z" agent="5.0 (Macintosh; Intel Mac OS X 10_15_7) AppleWebKit/537.36 (KHTML, like Gecko) Chrome/105.0.0.0 Safari/537.36 Edg/105.0.1343.33" etag="le5be5YcMP2On8nGV_8k" version="20.3.0" type="github" pages="2">
  <diagram id="WDtbSaIOtYO46Cujb4ph" name="User flow">
    <mxGraphModel dx="1179" dy="1129" grid="1" gridSize="10" guides="1" tooltips="1" connect="1" arrows="1" fold="1" page="1" pageScale="1" pageWidth="827" pageHeight="1169" math="0" shadow="0">
      <root>
        <mxCell id="0" />
        <mxCell id="1" parent="0" />
        <mxCell id="wNC7VcY_pXNUr3YiCl-7-4" style="edgeStyle=orthogonalEdgeStyle;rounded=0;orthogonalLoop=1;jettySize=auto;html=1;entryX=0.5;entryY=0;entryDx=0;entryDy=0;" parent="1" source="wNC7VcY_pXNUr3YiCl-7-1" target="wNC7VcY_pXNUr3YiCl-7-3" edge="1">
          <mxGeometry relative="1" as="geometry" />
        </mxCell>
        <mxCell id="wNC7VcY_pXNUr3YiCl-7-1" value="Submit form" style="rounded=0;whiteSpace=wrap;html=1;" parent="1" vertex="1">
          <mxGeometry x="300" y="142" width="120" height="60" as="geometry" />
        </mxCell>
        <mxCell id="wNC7VcY_pXNUr3YiCl-7-6" style="edgeStyle=orthogonalEdgeStyle;rounded=0;orthogonalLoop=1;jettySize=auto;html=1;exitX=0;exitY=0.5;exitDx=0;exitDy=0;entryX=1;entryY=0.5;entryDx=0;entryDy=0;" parent="1" source="wNC7VcY_pXNUr3YiCl-7-3" target="wNC7VcY_pXNUr3YiCl-7-8" edge="1">
          <mxGeometry relative="1" as="geometry">
            <mxPoint x="220" y="287" as="targetPoint" />
          </mxGeometry>
        </mxCell>
        <mxCell id="wNC7VcY_pXNUr3YiCl-7-7" value="Invalid" style="edgeLabel;html=1;align=center;verticalAlign=middle;resizable=0;points=[];" parent="wNC7VcY_pXNUr3YiCl-7-6" vertex="1" connectable="0">
          <mxGeometry y="2" relative="1" as="geometry">
            <mxPoint y="-2" as="offset" />
          </mxGeometry>
        </mxCell>
        <mxCell id="wNC7VcY_pXNUr3YiCl-7-15" style="edgeStyle=orthogonalEdgeStyle;rounded=0;orthogonalLoop=1;jettySize=auto;html=1;entryX=0;entryY=0.5;entryDx=0;entryDy=0;" parent="1" source="wNC7VcY_pXNUr3YiCl-7-3" target="wNC7VcY_pXNUr3YiCl-7-14" edge="1">
          <mxGeometry relative="1" as="geometry" />
        </mxCell>
        <mxCell id="wNC7VcY_pXNUr3YiCl-7-16" value="Limit reached" style="edgeLabel;html=1;align=center;verticalAlign=middle;resizable=0;points=[];" parent="wNC7VcY_pXNUr3YiCl-7-15" vertex="1" connectable="0">
          <mxGeometry x="-0.0727" y="1" relative="1" as="geometry">
            <mxPoint as="offset" />
          </mxGeometry>
        </mxCell>
        <mxCell id="wNC7VcY_pXNUr3YiCl-7-20" style="edgeStyle=orthogonalEdgeStyle;rounded=0;orthogonalLoop=1;jettySize=auto;html=1;entryX=0.5;entryY=0;entryDx=0;entryDy=0;" parent="1" source="wNC7VcY_pXNUr3YiCl-7-3" target="wNC7VcY_pXNUr3YiCl-7-19" edge="1">
          <mxGeometry relative="1" as="geometry" />
        </mxCell>
        <mxCell id="wNC7VcY_pXNUr3YiCl-7-21" value="Valid" style="edgeLabel;html=1;align=center;verticalAlign=middle;resizable=0;points=[];" parent="wNC7VcY_pXNUr3YiCl-7-20" vertex="1" connectable="0">
          <mxGeometry x="-0.1667" y="-2" relative="1" as="geometry">
            <mxPoint as="offset" />
          </mxGeometry>
        </mxCell>
        <mxCell id="wNC7VcY_pXNUr3YiCl-7-3" value="Valid&lt;br&gt;content?" style="rhombus;whiteSpace=wrap;html=1;" parent="1" vertex="1">
          <mxGeometry x="320" y="247" width="80" height="80" as="geometry" />
        </mxCell>
        <mxCell id="wNC7VcY_pXNUr3YiCl-7-30" value="" style="edgeStyle=orthogonalEdgeStyle;rounded=0;orthogonalLoop=1;jettySize=auto;html=1;" parent="1" source="wNC7VcY_pXNUr3YiCl-7-8" target="wNC7VcY_pXNUr3YiCl-7-10" edge="1">
          <mxGeometry relative="1" as="geometry" />
        </mxCell>
        <mxCell id="wNC7VcY_pXNUr3YiCl-7-8" value="Notify user" style="rounded=0;whiteSpace=wrap;html=1;" parent="1" vertex="1">
          <mxGeometry x="100" y="257" width="120" height="60" as="geometry" />
        </mxCell>
        <mxCell id="wNC7VcY_pXNUr3YiCl-7-10" value="" style="ellipse;html=1;shape=endState;fillColor=#000000;strokeColor=#ff0000;" parent="1" vertex="1">
          <mxGeometry x="145" y="157" width="30" height="30" as="geometry" />
        </mxCell>
        <mxCell id="wNC7VcY_pXNUr3YiCl-7-18" style="edgeStyle=orthogonalEdgeStyle;rounded=0;orthogonalLoop=1;jettySize=auto;html=1;entryX=0.5;entryY=1;entryDx=0;entryDy=0;" parent="1" source="wNC7VcY_pXNUr3YiCl-7-14" target="wNC7VcY_pXNUr3YiCl-7-17" edge="1">
          <mxGeometry relative="1" as="geometry" />
        </mxCell>
        <mxCell id="wNC7VcY_pXNUr3YiCl-7-14" value="Notify user" style="rounded=0;whiteSpace=wrap;html=1;" parent="1" vertex="1">
          <mxGeometry x="510" y="257" width="120" height="60" as="geometry" />
        </mxCell>
        <mxCell id="wNC7VcY_pXNUr3YiCl-7-17" value="" style="ellipse;html=1;shape=endState;fillColor=#000000;strokeColor=#ff0000;" parent="1" vertex="1">
          <mxGeometry x="555" y="157" width="30" height="30" as="geometry" />
        </mxCell>
        <mxCell id="wNC7VcY_pXNUr3YiCl-7-23" style="edgeStyle=orthogonalEdgeStyle;rounded=0;orthogonalLoop=1;jettySize=auto;html=1;exitX=1;exitY=0.5;exitDx=0;exitDy=0;entryX=0;entryY=0.5;entryDx=0;entryDy=0;entryPerimeter=0;" parent="1" source="wNC7VcY_pXNUr3YiCl-7-19" target="wNC7VcY_pXNUr3YiCl-7-22" edge="1">
          <mxGeometry relative="1" as="geometry" />
        </mxCell>
        <mxCell id="wNC7VcY_pXNUr3YiCl-7-32" style="edgeStyle=orthogonalEdgeStyle;rounded=0;orthogonalLoop=1;jettySize=auto;html=1;exitX=0.5;exitY=1;exitDx=0;exitDy=0;entryX=0.5;entryY=0;entryDx=0;entryDy=0;" parent="1" source="wNC7VcY_pXNUr3YiCl-7-19" target="wNC7VcY_pXNUr3YiCl-7-31" edge="1">
          <mxGeometry relative="1" as="geometry" />
        </mxCell>
        <mxCell id="wNC7VcY_pXNUr3YiCl-7-19" value="Store print" style="rounded=0;whiteSpace=wrap;html=1;" parent="1" vertex="1">
          <mxGeometry x="300" y="377" width="120" height="60" as="geometry" />
        </mxCell>
        <mxCell id="8PWlN0h1wm2l-ciwrIyN-3" style="edgeStyle=orthogonalEdgeStyle;rounded=0;orthogonalLoop=1;jettySize=auto;html=1;entryX=0.5;entryY=0;entryDx=0;entryDy=0;" parent="1" source="wNC7VcY_pXNUr3YiCl-7-22" target="8PWlN0h1wm2l-ciwrIyN-2" edge="1">
          <mxGeometry relative="1" as="geometry" />
        </mxCell>
        <mxCell id="wNC7VcY_pXNUr3YiCl-7-22" value="prints" style="shape=cylinder3;whiteSpace=wrap;html=1;boundedLbl=1;backgroundOutline=1;size=15;" parent="1" vertex="1">
          <mxGeometry x="540" y="367" width="60" height="80" as="geometry" />
        </mxCell>
        <mxCell id="wNC7VcY_pXNUr3YiCl-7-29" style="edgeStyle=orthogonalEdgeStyle;rounded=0;orthogonalLoop=1;jettySize=auto;html=1;" parent="1" source="wNC7VcY_pXNUr3YiCl-7-24" target="wNC7VcY_pXNUr3YiCl-7-1" edge="1">
          <mxGeometry relative="1" as="geometry" />
        </mxCell>
        <mxCell id="wNC7VcY_pXNUr3YiCl-7-24" value="User" style="shape=umlActor;verticalLabelPosition=bottom;verticalAlign=top;html=1;outlineConnect=0;" parent="1" vertex="1">
          <mxGeometry x="220" y="47" width="30" height="60" as="geometry" />
        </mxCell>
        <mxCell id="wNC7VcY_pXNUr3YiCl-7-34" style="edgeStyle=orthogonalEdgeStyle;rounded=0;orthogonalLoop=1;jettySize=auto;html=1;" parent="1" source="wNC7VcY_pXNUr3YiCl-7-31" target="wNC7VcY_pXNUr3YiCl-7-33" edge="1">
          <mxGeometry relative="1" as="geometry" />
        </mxCell>
        <mxCell id="wNC7VcY_pXNUr3YiCl-7-31" value="Send ACK email" style="rounded=0;whiteSpace=wrap;html=1;" parent="1" vertex="1">
          <mxGeometry x="300" y="487" width="120" height="60" as="geometry" />
        </mxCell>
        <mxCell id="wNC7VcY_pXNUr3YiCl-7-35" style="edgeStyle=orthogonalEdgeStyle;rounded=0;orthogonalLoop=1;jettySize=auto;html=1;entryX=0.5;entryY=0;entryDx=0;entryDy=0;entryPerimeter=0;" parent="1" source="wNC7VcY_pXNUr3YiCl-7-33" target="wNC7VcY_pXNUr3YiCl-7-24" edge="1">
          <mxGeometry relative="1" as="geometry">
            <mxPoint x="170" y="107" as="targetPoint" />
            <Array as="points">
              <mxPoint x="60" y="517" />
              <mxPoint x="60" y="20" />
              <mxPoint x="235" y="20" />
            </Array>
          </mxGeometry>
        </mxCell>
        <mxCell id="wNC7VcY_pXNUr3YiCl-7-33" value="Email with ACK" style="shape=document;whiteSpace=wrap;html=1;boundedLbl=1;" parent="1" vertex="1">
          <mxGeometry x="100" y="477" width="120" height="80" as="geometry" />
        </mxCell>
        <mxCell id="8PWlN0h1wm2l-ciwrIyN-7" style="edgeStyle=orthogonalEdgeStyle;rounded=0;orthogonalLoop=1;jettySize=auto;html=1;entryX=1;entryY=0.5;entryDx=0;entryDy=0;" parent="1" source="8PWlN0h1wm2l-ciwrIyN-1" target="8PWlN0h1wm2l-ciwrIyN-2" edge="1">
          <mxGeometry relative="1" as="geometry" />
        </mxCell>
        <mxCell id="8PWlN0h1wm2l-ciwrIyN-1" value="Cashback&lt;br&gt;operator" style="shape=umlActor;verticalLabelPosition=bottom;verticalAlign=top;html=1;outlineConnect=0;" parent="1" vertex="1">
          <mxGeometry x="720" y="715" width="30" height="60" as="geometry" />
        </mxCell>
        <mxCell id="8PWlN0h1wm2l-ciwrIyN-9" value="" style="edgeStyle=orthogonalEdgeStyle;rounded=0;orthogonalLoop=1;jettySize=auto;html=1;" parent="1" source="8PWlN0h1wm2l-ciwrIyN-2" target="8PWlN0h1wm2l-ciwrIyN-8" edge="1">
          <mxGeometry relative="1" as="geometry" />
        </mxCell>
        <mxCell id="8PWlN0h1wm2l-ciwrIyN-2" value="Review submission" style="whiteSpace=wrap;html=1;aspect=fixed;" parent="1" vertex="1">
          <mxGeometry x="530" y="705" width="80" height="80" as="geometry" />
        </mxCell>
        <mxCell id="8PWlN0h1wm2l-ciwrIyN-17" style="edgeStyle=orthogonalEdgeStyle;rounded=0;orthogonalLoop=1;jettySize=auto;html=1;entryX=0.5;entryY=1;entryDx=0;entryDy=0;" parent="1" source="8PWlN0h1wm2l-ciwrIyN-8" target="8PWlN0h1wm2l-ciwrIyN-11" edge="1">
          <mxGeometry relative="1" as="geometry" />
        </mxCell>
        <mxCell id="8PWlN0h1wm2l-ciwrIyN-20" value="Invalid" style="edgeLabel;html=1;align=center;verticalAlign=middle;resizable=0;points=[];" parent="8PWlN0h1wm2l-ciwrIyN-17" vertex="1" connectable="0">
          <mxGeometry x="-0.0667" y="1" relative="1" as="geometry">
            <mxPoint as="offset" />
          </mxGeometry>
        </mxCell>
        <mxCell id="8PWlN0h1wm2l-ciwrIyN-22" style="edgeStyle=orthogonalEdgeStyle;rounded=0;orthogonalLoop=1;jettySize=auto;html=1;entryX=1;entryY=0.5;entryDx=0;entryDy=0;" parent="1" source="8PWlN0h1wm2l-ciwrIyN-8" target="8PWlN0h1wm2l-ciwrIyN-21" edge="1">
          <mxGeometry relative="1" as="geometry" />
        </mxCell>
        <mxCell id="8PWlN0h1wm2l-ciwrIyN-25" value="Needs info" style="edgeLabel;html=1;align=center;verticalAlign=middle;resizable=0;points=[];" parent="8PWlN0h1wm2l-ciwrIyN-22" vertex="1" connectable="0">
          <mxGeometry x="0.12" relative="1" as="geometry">
            <mxPoint x="13" as="offset" />
          </mxGeometry>
        </mxCell>
        <mxCell id="8PWlN0h1wm2l-ciwrIyN-30" style="edgeStyle=orthogonalEdgeStyle;rounded=0;orthogonalLoop=1;jettySize=auto;html=1;entryX=0.5;entryY=0;entryDx=0;entryDy=0;" parent="1" source="8PWlN0h1wm2l-ciwrIyN-8" target="8PWlN0h1wm2l-ciwrIyN-27" edge="1">
          <mxGeometry relative="1" as="geometry" />
        </mxCell>
        <mxCell id="8PWlN0h1wm2l-ciwrIyN-8" value="Valid?" style="rhombus;whiteSpace=wrap;html=1;" parent="1" vertex="1">
          <mxGeometry x="320" y="705" width="80" height="80" as="geometry" />
        </mxCell>
        <mxCell id="8PWlN0h1wm2l-ciwrIyN-19" style="edgeStyle=orthogonalEdgeStyle;rounded=0;orthogonalLoop=1;jettySize=auto;html=1;entryX=1;entryY=0.5;entryDx=0;entryDy=0;" parent="1" source="8PWlN0h1wm2l-ciwrIyN-11" target="8PWlN0h1wm2l-ciwrIyN-18" edge="1">
          <mxGeometry relative="1" as="geometry" />
        </mxCell>
        <mxCell id="8PWlN0h1wm2l-ciwrIyN-11" value="Notify user" style="whiteSpace=wrap;html=1;" parent="1" vertex="1">
          <mxGeometry x="300" y="585" width="120" height="60" as="geometry" />
        </mxCell>
        <mxCell id="8PWlN0h1wm2l-ciwrIyN-18" value="" style="ellipse;html=1;shape=endState;fillColor=#000000;strokeColor=#ff0000;" parent="1" vertex="1">
          <mxGeometry x="145" y="600" width="30" height="30" as="geometry" />
        </mxCell>
        <mxCell id="8NjPHoDq3jVp07QAdXOO-4" style="edgeStyle=orthogonalEdgeStyle;rounded=0;orthogonalLoop=1;jettySize=auto;html=1;entryX=0.5;entryY=0;entryDx=0;entryDy=0;" parent="1" source="8PWlN0h1wm2l-ciwrIyN-21" target="8PWlN0h1wm2l-ciwrIyN-23" edge="1">
          <mxGeometry relative="1" as="geometry" />
        </mxCell>
        <mxCell id="8PWlN0h1wm2l-ciwrIyN-21" value="Notify user" style="rounded=0;whiteSpace=wrap;html=1;fillColor=#f8cecc;strokeColor=#b85450;" parent="1" vertex="1">
          <mxGeometry x="100" y="715" width="120" height="60" as="geometry" />
        </mxCell>
        <mxCell id="8PWlN0h1wm2l-ciwrIyN-26" style="edgeStyle=orthogonalEdgeStyle;rounded=0;orthogonalLoop=1;jettySize=auto;html=1;" parent="1" source="8PWlN0h1wm2l-ciwrIyN-23" edge="1">
          <mxGeometry relative="1" as="geometry">
            <mxPoint x="60" y="520" as="targetPoint" />
          </mxGeometry>
        </mxCell>
        <mxCell id="8PWlN0h1wm2l-ciwrIyN-23" value="Email with&lt;br&gt;&amp;nbsp;comeback/update&lt;br&gt;link" style="shape=document;whiteSpace=wrap;html=1;boundedLbl=1;" parent="1" vertex="1">
          <mxGeometry x="100" y="850" width="120" height="80" as="geometry" />
        </mxCell>
        <mxCell id="8PWlN0h1wm2l-ciwrIyN-28" style="edgeStyle=orthogonalEdgeStyle;rounded=0;orthogonalLoop=1;jettySize=auto;html=1;" parent="1" source="8PWlN0h1wm2l-ciwrIyN-27" target="8PWlN0h1wm2l-ciwrIyN-23" edge="1">
          <mxGeometry relative="1" as="geometry" />
        </mxCell>
        <mxCell id="8PWlN0h1wm2l-ciwrIyN-33" value="No" style="edgeLabel;html=1;align=center;verticalAlign=middle;resizable=0;points=[];" parent="8PWlN0h1wm2l-ciwrIyN-28" vertex="1" connectable="0">
          <mxGeometry x="0.0034" y="2" relative="1" as="geometry">
            <mxPoint y="-2" as="offset" />
          </mxGeometry>
        </mxCell>
        <mxCell id="8PWlN0h1wm2l-ciwrIyN-32" value="Yes&lt;br&gt;" style="edgeStyle=orthogonalEdgeStyle;rounded=0;orthogonalLoop=1;jettySize=auto;html=1;entryX=0;entryY=0.5;entryDx=0;entryDy=0;" parent="1" source="8PWlN0h1wm2l-ciwrIyN-27" target="8PWlN0h1wm2l-ciwrIyN-31" edge="1">
          <mxGeometry relative="1" as="geometry" />
        </mxCell>
        <mxCell id="8PWlN0h1wm2l-ciwrIyN-27" value="Checkouts&lt;br&gt;reached?" style="rhombus;whiteSpace=wrap;html=1;" parent="1" vertex="1">
          <mxGeometry x="320" y="850" width="80" height="80" as="geometry" />
        </mxCell>
        <mxCell id="8PWlN0h1wm2l-ciwrIyN-31" value="???" style="rounded=0;whiteSpace=wrap;html=1;fillColor=#f8cecc;strokeColor=#b85450;" parent="1" vertex="1">
          <mxGeometry x="510" y="860" width="120" height="60" as="geometry" />
        </mxCell>
        <mxCell id="8PWlN0h1wm2l-ciwrIyN-35" style="edgeStyle=orthogonalEdgeStyle;rounded=0;orthogonalLoop=1;jettySize=auto;html=1;entryX=0.5;entryY=0;entryDx=0;entryDy=0;" parent="1" source="8PWlN0h1wm2l-ciwrIyN-34" target="wNC7VcY_pXNUr3YiCl-7-1" edge="1">
          <mxGeometry relative="1" as="geometry" />
        </mxCell>
        <mxCell id="8PWlN0h1wm2l-ciwrIyN-34" value="Build form based on configuration" style="rounded=0;whiteSpace=wrap;html=1;" parent="1" vertex="1">
          <mxGeometry x="440" y="47" width="120" height="60" as="geometry" />
        </mxCell>
      </root>
    </mxGraphModel>
  </diagram>
  <diagram id="gj7A73VOuZK3j2tRHopN" name="Form generation">
    <mxGraphModel dx="1179" dy="1129" grid="1" gridSize="10" guides="1" tooltips="1" connect="1" arrows="1" fold="1" page="1" pageScale="1" pageWidth="827" pageHeight="1169" math="0" shadow="0">
      <root>
        <mxCell id="0" />
        <mxCell id="1" parent="0" />
        <mxCell id="qiEQvnBYQKZ-9OBX5drU-14" style="edgeStyle=orthogonalEdgeStyle;rounded=0;orthogonalLoop=1;jettySize=auto;html=1;entryX=0;entryY=0.5;entryDx=0;entryDy=0;" edge="1" parent="1" source="qiEQvnBYQKZ-9OBX5drU-2" target="qiEQvnBYQKZ-9OBX5drU-3">
          <mxGeometry relative="1" as="geometry" />
        </mxCell>
        <mxCell id="qiEQvnBYQKZ-9OBX5drU-2" value="&lt;br&gt;offers" style="strokeWidth=2;html=1;shape=mxgraph.flowchart.database;whiteSpace=wrap;" vertex="1" parent="1">
          <mxGeometry x="20" y="190" width="60" height="60" as="geometry" />
        </mxCell>
        <mxCell id="qiEQvnBYQKZ-9OBX5drU-15" style="edgeStyle=orthogonalEdgeStyle;rounded=0;orthogonalLoop=1;jettySize=auto;html=1;entryX=-0.006;entryY=0.333;entryDx=0;entryDy=0;entryPerimeter=0;" edge="1" parent="1" source="qiEQvnBYQKZ-9OBX5drU-3" target="qiEQvnBYQKZ-9OBX5drU-9">
          <mxGeometry relative="1" as="geometry" />
        </mxCell>
        <mxCell id="qiEQvnBYQKZ-9OBX5drU-3" value="Read offer configuration" style="rounded=1;whiteSpace=wrap;html=1;absoluteArcSize=1;arcSize=14;strokeWidth=2;" vertex="1" parent="1">
          <mxGeometry x="125" y="170" width="100" height="100" as="geometry" />
        </mxCell>
        <mxCell id="qiEQvnBYQKZ-9OBX5drU-12" style="edgeStyle=orthogonalEdgeStyle;rounded=0;orthogonalLoop=1;jettySize=auto;html=1;entryX=0.494;entryY=-0.006;entryDx=0;entryDy=0;entryPerimeter=0;" edge="1" parent="1" source="qiEQvnBYQKZ-9OBX5drU-4" target="qiEQvnBYQKZ-9OBX5drU-9">
          <mxGeometry relative="1" as="geometry" />
        </mxCell>
        <mxCell id="qiEQvnBYQKZ-9OBX5drU-4" value="Actor" style="shape=umlActor;verticalLabelPosition=bottom;verticalAlign=top;html=1;outlineConnect=0;" vertex="1" parent="1">
          <mxGeometry x="50" y="20" width="30" height="60" as="geometry" />
        </mxCell>
        <mxCell id="qiEQvnBYQKZ-9OBX5drU-9" value="" style="strokeWidth=1;shadow=0;dashed=0;align=center;html=1;shape=mxgraph.mockup.containers.browserWindow;rSize=0;strokeColor=#666666;strokeColor2=#008cff;strokeColor3=#c4c4c4;mainText=,;recursiveResize=0;" vertex="1" parent="1">
          <mxGeometry x="290" y="100" width="500" height="360" as="geometry" />
        </mxCell>
        <mxCell id="qiEQvnBYQKZ-9OBX5drU-10" value="BLP" style="strokeWidth=1;shadow=0;dashed=0;align=center;html=1;shape=mxgraph.mockup.containers.anchor;fontSize=17;fontColor=#666666;align=left;" vertex="1" parent="qiEQvnBYQKZ-9OBX5drU-9">
          <mxGeometry x="60" y="12" width="110" height="26" as="geometry" />
        </mxCell>
        <mxCell id="qiEQvnBYQKZ-9OBX5drU-11" value="https://coupons.valassis.eu" style="strokeWidth=1;shadow=0;dashed=0;align=center;html=1;shape=mxgraph.mockup.containers.anchor;rSize=0;fontSize=17;fontColor=#666666;align=left;" vertex="1" parent="qiEQvnBYQKZ-9OBX5drU-9">
          <mxGeometry x="130" y="60" width="250" height="26" as="geometry" />
        </mxCell>
        <mxCell id="qiEQvnBYQKZ-9OBX5drU-17" value="name@example.com" style="html=1;shadow=0;dashed=0;shape=mxgraph.bootstrap.rrect;rSize=5;fillColor=none;strokeColor=#999999;align=left;spacing=15;fontSize=14;fontColor=#6C767D;" vertex="1" parent="qiEQvnBYQKZ-9OBX5drU-9">
          <mxGeometry width="320" height="30" relative="1" as="geometry">
            <mxPoint x="10" y="140" as="offset" />
          </mxGeometry>
        </mxCell>
        <mxCell id="qiEQvnBYQKZ-9OBX5drU-16" value="Email address" style="fillColor=none;strokeColor=none;align=left;fontSize=14;" vertex="1" parent="qiEQvnBYQKZ-9OBX5drU-9">
          <mxGeometry x="10" y="110" width="260" height="40" as="geometry" />
        </mxCell>
        <mxCell id="qiEQvnBYQKZ-9OBX5drU-32" value="PoP(s)" style="fillColor=none;strokeColor=none;align=left;fontSize=14;" vertex="1" parent="qiEQvnBYQKZ-9OBX5drU-9">
          <mxGeometry x="10" y="170" width="150" height="40" as="geometry" />
        </mxCell>
        <mxCell id="qiEQvnBYQKZ-9OBX5drU-33" value="Choose File" style="fillColor=#FEFEFE;strokeColor=#AAAAAA;fontSize=14;gradientColor=#F0F0F0;" vertex="1" parent="qiEQvnBYQKZ-9OBX5drU-9">
          <mxGeometry x="10" y="210" width="90" height="30" as="geometry" />
        </mxCell>
        <mxCell id="qiEQvnBYQKZ-9OBX5drU-34" value="No file chosen" style="fillColor=none;strokeColor=none;align=left;fontSize=14;spacing=5;" vertex="1" parent="qiEQvnBYQKZ-9OBX5drU-9">
          <mxGeometry x="100" y="210" width="230" height="30" as="geometry" />
        </mxCell>
        <mxCell id="qiEQvnBYQKZ-9OBX5drU-35" value="Option 1" style="strokeWidth=1;shadow=0;dashed=0;align=center;html=1;shape=mxgraph.mockup.forms.rrect;rSize=0;fillColor=#eeeeee;strokeColor=#999999;gradientColor=#cccccc;align=left;spacingLeft=4;fontSize=17;fontColor=#666666;labelPosition=right;" vertex="1" parent="qiEQvnBYQKZ-9OBX5drU-9">
          <mxGeometry x="10" y="300" width="15" height="15" as="geometry" />
        </mxCell>
        <mxCell id="qiEQvnBYQKZ-9OBX5drU-37" value="Option 1" style="strokeWidth=1;shadow=0;dashed=0;align=center;html=1;shape=mxgraph.mockup.forms.rrect;rSize=0;fillColor=#eeeeee;strokeColor=#999999;gradientColor=#cccccc;align=left;spacingLeft=4;fontSize=17;fontColor=#666666;labelPosition=right;" vertex="1" parent="qiEQvnBYQKZ-9OBX5drU-9">
          <mxGeometry x="10" y="330" width="15" height="15" as="geometry" />
        </mxCell>
        <mxCell id="qiEQvnBYQKZ-9OBX5drU-39" value="Primary" style="rounded=1;fillColor=#0057D8;strokeColor=none;html=1;fontColor=#ffffff;align=center;verticalAlign=middle;fontStyle=0;fontSize=12;sketch=0;" vertex="1" parent="qiEQvnBYQKZ-9OBX5drU-9">
          <mxGeometry x="390" y="310" width="86" height="33" as="geometry" />
        </mxCell>
        <mxCell id="qiEQvnBYQKZ-9OBX5drU-41" value="Choose File" style="fillColor=#FEFEFE;strokeColor=#AAAAAA;fontSize=14;gradientColor=#F0F0F0;" vertex="1" parent="qiEQvnBYQKZ-9OBX5drU-9">
          <mxGeometry x="10" y="250" width="90" height="30" as="geometry" />
        </mxCell>
        <mxCell id="qiEQvnBYQKZ-9OBX5drU-42" value="No file chosen" style="fillColor=none;strokeColor=none;align=left;fontSize=14;spacing=5;" vertex="1" parent="qiEQvnBYQKZ-9OBX5drU-9">
          <mxGeometry x="100" y="250" width="230" height="30" as="geometry" />
        </mxCell>
        <mxCell id="qiEQvnBYQKZ-9OBX5drU-43" value="" style="rounded=0;whiteSpace=wrap;html=1;fillColor=#008a00;fontColor=#FFFFFF;strokeColor=#005700;" vertex="1" parent="1">
          <mxGeometry x="20" y="300" width="250" height="160" as="geometry" />
        </mxCell>
        <mxCell id="qiEQvnBYQKZ-9OBX5drU-44" value="Scenario" style="text;html=1;strokeColor=none;fillColor=none;align=center;verticalAlign=middle;whiteSpace=wrap;rounded=0;fontStyle=1;fontSize=22;fontColor=#FFFFFF;" vertex="1" parent="1">
          <mxGeometry x="20" y="306" width="110" height="30" as="geometry" />
        </mxCell>
        <mxCell id="qiEQvnBYQKZ-9OBX5drU-45" value="Offer configured to be a loyalty campaign with, at least, two checkouts and a minimum of 4 items" style="text;html=1;strokeColor=#d6b656;fillColor=#fff2cc;align=center;verticalAlign=middle;whiteSpace=wrap;rounded=0;fontSize=16;" vertex="1" parent="1">
          <mxGeometry x="20" y="340" width="250" height="120" as="geometry" />
        </mxCell>
        <mxCell id="qiEQvnBYQKZ-9OBX5drU-49" style="edgeStyle=orthogonalEdgeStyle;rounded=0;orthogonalLoop=1;jettySize=auto;html=1;fontSize=16;fontColor=#FFFFFF;" edge="1" parent="1" source="qiEQvnBYQKZ-9OBX5drU-46" target="qiEQvnBYQKZ-9OBX5drU-48">
          <mxGeometry relative="1" as="geometry" />
        </mxCell>
        <mxCell id="qiEQvnBYQKZ-9OBX5drU-51" style="edgeStyle=orthogonalEdgeStyle;rounded=0;orthogonalLoop=1;jettySize=auto;html=1;entryX=0.5;entryY=0;entryDx=0;entryDy=0;fontSize=16;fontColor=#FFFFFF;" edge="1" parent="1" source="qiEQvnBYQKZ-9OBX5drU-46" target="qiEQvnBYQKZ-9OBX5drU-50">
          <mxGeometry relative="1" as="geometry" />
        </mxCell>
        <mxCell id="qiEQvnBYQKZ-9OBX5drU-46" value="Store print" style="rounded=1;whiteSpace=wrap;html=1;absoluteArcSize=1;arcSize=14;strokeWidth=2;" vertex="1" parent="1">
          <mxGeometry x="673" y="550" width="100" height="100" as="geometry" />
        </mxCell>
        <mxCell id="qiEQvnBYQKZ-9OBX5drU-47" style="edgeStyle=orthogonalEdgeStyle;rounded=0;orthogonalLoop=1;jettySize=auto;html=1;fontSize=16;fontColor=#FFFFFF;" edge="1" parent="1" source="qiEQvnBYQKZ-9OBX5drU-39" target="qiEQvnBYQKZ-9OBX5drU-46">
          <mxGeometry relative="1" as="geometry" />
        </mxCell>
        <mxCell id="qiEQvnBYQKZ-9OBX5drU-48" value="&lt;br&gt;prints" style="strokeWidth=2;html=1;shape=mxgraph.flowchart.database;whiteSpace=wrap;" vertex="1" parent="1">
          <mxGeometry x="530" y="570" width="60" height="60" as="geometry" />
        </mxCell>
        <mxCell id="05fTXrsO_kq8lveAhWLQ-5" style="edgeStyle=orthogonalEdgeStyle;rounded=0;orthogonalLoop=1;jettySize=auto;html=1;entryX=1;entryY=0.5;entryDx=0;entryDy=0;entryPerimeter=0;fontSize=16;fontColor=#FFFFFF;" edge="1" parent="1" source="qiEQvnBYQKZ-9OBX5drU-50" target="05fTXrsO_kq8lveAhWLQ-4">
          <mxGeometry relative="1" as="geometry" />
        </mxCell>
        <mxCell id="qiEQvnBYQKZ-9OBX5drU-50" value="Send ACK email" style="rounded=1;whiteSpace=wrap;html=1;absoluteArcSize=1;arcSize=14;strokeWidth=2;" vertex="1" parent="1">
          <mxGeometry x="673" y="720" width="100" height="100" as="geometry" />
        </mxCell>
        <mxCell id="05fTXrsO_kq8lveAhWLQ-8" style="edgeStyle=orthogonalEdgeStyle;rounded=0;orthogonalLoop=1;jettySize=auto;html=1;entryX=1;entryY=0.5;entryDx=0;entryDy=0;fontSize=16;fontColor=#FFFFFF;" edge="1" parent="1" source="05fTXrsO_kq8lveAhWLQ-4" target="05fTXrsO_kq8lveAhWLQ-7">
          <mxGeometry relative="1" as="geometry" />
        </mxCell>
        <mxCell id="05fTXrsO_kq8lveAhWLQ-4" value="" style="verticalLabelPosition=bottom;html=1;verticalAlign=top;align=center;strokeColor=none;fillColor=#00BEF2;shape=mxgraph.azure.message;pointerEvents=1;fontSize=16;fontColor=#FFFFFF;" vertex="1" parent="1">
          <mxGeometry x="535" y="751.25" width="50" height="37.5" as="geometry" />
        </mxCell>
        <mxCell id="05fTXrsO_kq8lveAhWLQ-7" value="" style="ellipse;html=1;shape=endState;fillColor=#000000;strokeColor=#ff0000;" vertex="1" parent="1">
          <mxGeometry x="420" y="755" width="30" height="30" as="geometry" />
        </mxCell>
      </root>
    </mxGraphModel>
  </diagram>
</mxfile>
